<?xml version="1.0" encoding="UTF-8"?>
<svg id="Layer_1" data-name="Layer 1" xmlns="http://www.w3.org/2000/svg" viewBox="0 0 1152.17 1200.17">
  <defs>
    <style>
      .cls-1, .cls-2 {
        fill: none;
      }

      .cls-2 {
        stroke: #fff;
        stroke-linejoin: round;
        stroke-width: 29.56px;
      }
    </style>
  </defs>
  <g id="White_Logo_Icon" data-name="White Logo Icon">
    <g>
      <path class="cls-2" d="M918.31,536.11c40.95-179.4,108.35-203.97,149.76-54.6s-75.2,267.45-259.15,262.41l-91.68-2.51c-183.94-5.04-250,104.59-146.79,243.63,103.21,139.04,221.17,106.01,262.12-73.39l85.73-375.54h0Z"/>
      <path class="cls-2" d="M921.86,853.06c8.04-27.62,36.95-43.48,64.56-35.44,65.56,21.95,37.95,116.69-29.12,100-27.61-8.04-43.48-36.95-35.44-64.56h0Z"/>
      <path class="cls-2" d="M460.38,928.45c134.89,125.17,122.47,195.81-27.59,157s-194.02-198.85-97.68-355.63l48.02-78.14c96.34-156.78,34.42-268.8-137.6-248.93-172.01,19.87-202.39,138.53-67.5,263.7l282.36,262.02h0Z"/>
      <path class="cls-2" d="M184.12,773.04c19.89,20.77,19.18,53.74-1.59,73.63-51.79,45.8-120.03-25.48-72.04-75.22,20.77-19.89,53.74-19.18,73.63,1.59h0Z"/>
      <path class="cls-2" d="M349.57,335.7c-175.84,54.23-230.82,8.15-122.17-102.39,108.65-110.55,269.22-68.6,356.83,93.22l43.67,80.65c87.61,161.82,215.58,164.21,284.38,5.31s-18.78-244.54-194.62-190.31l-368.09,113.53h0Z"/>
      <path class="cls-2" d="M660.63,135.34c-6.5,28.02-34.48,45.46-62.5,38.96-66.67-18.28-44.35-114.41,23.54-101.46,28.02,6.5,45.46,34.48,38.96,62.5h0Z"/>
      <path class="cls-2" d="M576.09,680.08c-44.18,0-79.99-35.81-79.99-79.99,4.21-106.11,155.78-106.08,159.98,0,0,44.18-35.81,79.99-79.99,79.99h0Z"/>
      <circle class="cls-1" cx="576.09" cy="600.08" r="600.08"/>
    </g>
  </g>
</svg>