<?xml version="1.0" encoding="UTF-8"?>
<svg id="Layer_2" data-name="Layer 2" xmlns="http://www.w3.org/2000/svg" xmlns:xlink="http://www.w3.org/1999/xlink" viewBox="0 0 43.51 65.45">
  <defs>
    <style>
      .cls-1 {
        fill: url(#linear-gradient-12);
      }

      .cls-1, .cls-2, .cls-3, .cls-4, .cls-5, .cls-6, .cls-7, .cls-8, .cls-9, .cls-10, .cls-11, .cls-12, .cls-13, .cls-14, .cls-15, .cls-16, .cls-17, .cls-18, .cls-19, .cls-20, .cls-21, .cls-22, .cls-23, .cls-24 {
        stroke-width: 0px;
      }

      .cls-2 {
        fill: url(#linear-gradient);
      }

      .cls-3 {
        fill: url(#linear-gradient-6);
      }

      .cls-4 {
        fill: url(#linear-gradient-15);
      }

      .cls-5 {
        fill: url(#linear-gradient-11);
      }

      .cls-6 {
        fill: url(#linear-gradient-5);
      }

      .cls-7 {
        fill: none;
      }

      .cls-8 {
        fill: url(#linear-gradient-13);
      }

      .cls-9 {
        fill: url(#linear-gradient-16);
      }

      .cls-10 {
        fill: url(#linear-gradient-14);
      }

      .cls-11 {
        fill: url(#linear-gradient-2);
      }

      .cls-12 {
        fill: url(#linear-gradient-7);
      }

      .cls-13 {
        fill: url(#radial-gradient-2);
      }

      .cls-14 {
        fill: url(#linear-gradient-3);
      }

      .cls-15 {
        fill: url(#radial-gradient-5);
      }

      .cls-16 {
        fill: url(#linear-gradient-9);
      }

      .cls-17 {
        fill: url(#radial-gradient);
      }

      .cls-18 {
        fill: url(#linear-gradient-8);
      }

      .cls-19 {
        fill: #d2d8db;
      }

      .cls-20 {
        fill: #2d7dd4;
      }

      .cls-21 {
        fill: url(#linear-gradient-10);
      }

      .cls-22 {
        fill: url(#radial-gradient-3);
      }

      .cls-23 {
        fill: url(#linear-gradient-4);
      }

      .cls-24 {
        fill: url(#radial-gradient-4);
      }
    </style>
    <radialGradient id="radial-gradient" cx="51.37" cy="29.3" fx="51.37" fy="29.3" r="80.42" gradientUnits="userSpaceOnUse">
      <stop offset=".25" stop-color="#fff"/>
      <stop offset="1" stop-color="#fff" stop-opacity="0"/>
    </radialGradient>
    <radialGradient id="radial-gradient-2" cx="51.03" cy="34.64" fx="51.03" fy="34.64" r="55.25" gradientUnits="userSpaceOnUse">
      <stop offset="0" stop-color="#d2d8db" stop-opacity=".3"/>
      <stop offset=".13" stop-color="#d2d8db" stop-opacity=".33"/>
      <stop offset=".3" stop-color="#d2d8db" stop-opacity=".4"/>
      <stop offset=".49" stop-color="#d2d8db" stop-opacity=".53"/>
      <stop offset=".7" stop-color="#d2d8db" stop-opacity=".7"/>
      <stop offset=".93" stop-color="#d2d8db" stop-opacity=".92"/>
      <stop offset="1" stop-color="#d2d8db"/>
    </radialGradient>
    <radialGradient id="radial-gradient-3" cx="51.02" cy="107.12" fx="51.02" fy="107.12" r="50.97" xlink:href="#radial-gradient"/>
    <radialGradient id="radial-gradient-4" cx="101.45" cy="24.22" fx="101.45" fy="24.22" r="59.83" gradientUnits="userSpaceOnUse">
      <stop offset="0" stop-color="#fff"/>
      <stop offset=".07" stop-color="#fff" stop-opacity=".83"/>
      <stop offset=".16" stop-color="#fff" stop-opacity=".64"/>
      <stop offset=".26" stop-color="#fff" stop-opacity=".47"/>
      <stop offset=".36" stop-color="#fff" stop-opacity=".32"/>
      <stop offset=".47" stop-color="#fff" stop-opacity=".21"/>
      <stop offset=".58" stop-color="#fff" stop-opacity=".11"/>
      <stop offset=".7" stop-color="#fff" stop-opacity=".05"/>
      <stop offset=".83" stop-color="#fff" stop-opacity=".01"/>
      <stop offset="1" stop-color="#fff" stop-opacity="0"/>
    </radialGradient>
    <radialGradient id="radial-gradient-5" cx="10711.19" cy="58.71" fx="10711.19" fy="58.71" r="58.25" gradientTransform="translate(10758.53) rotate(-180) scale(1 -1)" gradientUnits="userSpaceOnUse">
      <stop offset="0" stop-color="#cdd3d6"/>
      <stop offset=".06" stop-color="#cdd3d6" stop-opacity=".91"/>
      <stop offset=".25" stop-color="#cdd3d6" stop-opacity=".64"/>
      <stop offset=".43" stop-color="#cdd3d6" stop-opacity=".41"/>
      <stop offset=".6" stop-color="#cdd3d6" stop-opacity=".23"/>
      <stop offset=".76" stop-color="#cdd3d6" stop-opacity=".1"/>
      <stop offset=".89" stop-color="#cdd3d6" stop-opacity=".03"/>
      <stop offset="1" stop-color="#cdd3d6" stop-opacity="0"/>
    </radialGradient>
    <linearGradient id="linear-gradient" x1="49.17" y1="59.96" x2="27.34" y2="88.79" gradientUnits="userSpaceOnUse">
      <stop offset="0" stop-color="#1361aa"/>
      <stop offset=".13" stop-color="#1a69b6"/>
      <stop offset=".38" stop-color="#2474c6"/>
      <stop offset=".66" stop-color="#2b7ad0"/>
      <stop offset="1" stop-color="#2d7dd4"/>
    </linearGradient>
    <linearGradient id="linear-gradient-2" x1="50.78" y1="54.82" x2="50.72" y2="54.89" xlink:href="#linear-gradient"/>
    <linearGradient id="linear-gradient-3" x1="109.95" y1="33.6" x2="38.75" y2="77.17" gradientUnits="userSpaceOnUse">
      <stop offset="0" stop-color="#1361aa"/>
      <stop offset=".01" stop-color="#1664ae"/>
      <stop offset=".06" stop-color="#206fbf"/>
      <stop offset=".12" stop-color="#2777cb"/>
      <stop offset=".21" stop-color="#2b7bd2"/>
      <stop offset=".46" stop-color="#2d7dd4"/>
      <stop offset=".46" stop-color="#2a7ad0"/>
      <stop offset=".49" stop-color="#206fbf"/>
      <stop offset=".53" stop-color="#1866b2"/>
      <stop offset=".58" stop-color="#1462ab"/>
      <stop offset=".72" stop-color="#1361aa"/>
    </linearGradient>
    <linearGradient id="linear-gradient-4" x1="122.24" y1="53.68" x2="51.03" y2="97.25" xlink:href="#linear-gradient-3"/>
    <linearGradient id="linear-gradient-5" x1="61.68" y1="60.76" x2="54.35" y2="75.14" gradientUnits="userSpaceOnUse">
      <stop offset="0" stop-color="#1361aa"/>
      <stop offset=".02" stop-color="#1463ad"/>
      <stop offset=".14" stop-color="#1f6ebe"/>
      <stop offset=".3" stop-color="#2776ca"/>
      <stop offset=".5" stop-color="#2b7bd1"/>
      <stop offset="1" stop-color="#2d7dd4"/>
    </linearGradient>
    <linearGradient id="linear-gradient-6" x1="79.29" y1="72.13" x2="62.03" y2="106.02" xlink:href="#linear-gradient-5"/>
    <linearGradient id="linear-gradient-7" x1="12.96" y1="16.76" x2="87.13" y2="87.19" xlink:href="#linear-gradient-3"/>
    <linearGradient id="linear-gradient-8" x1="-12.96" y1="1.82" x2="61.22" y2="72.25" xlink:href="#linear-gradient-3"/>
    <linearGradient id="linear-gradient-9" x1="71.59" y1="26.64" x2="36.22" y2="96.05" xlink:href="#linear-gradient-3"/>
    <linearGradient id="linear-gradient-10" x1="46.95" y1="8.78" x2="9.58" y2="82.13" xlink:href="#linear-gradient-3"/>
    <linearGradient id="linear-gradient-11" x1="46.65" y1="20.66" x2="64.38" y2="20.66" gradientUnits="userSpaceOnUse">
      <stop offset="0" stop-color="#2d7dd4"/>
      <stop offset=".2" stop-color="#2d7dd4" stop-opacity=".75"/>
      <stop offset=".48" stop-color="#2d7dd4" stop-opacity=".43"/>
      <stop offset=".72" stop-color="#2d7dd4" stop-opacity=".2"/>
      <stop offset=".9" stop-color="#2d7dd4" stop-opacity=".05"/>
      <stop offset="1" stop-color="#2d7dd4" stop-opacity="0"/>
    </linearGradient>
    <linearGradient id="linear-gradient-12" x1=".95" y1="40.68" x2="22.92" y2="70.81" gradientUnits="userSpaceOnUse">
      <stop offset="0" stop-color="#2d7dd4"/>
      <stop offset=".09" stop-color="#2d7dd4" stop-opacity=".85"/>
      <stop offset=".27" stop-color="#2d7dd4" stop-opacity=".59"/>
      <stop offset=".44" stop-color="#2d7dd4" stop-opacity=".38"/>
      <stop offset=".6" stop-color="#2d7dd4" stop-opacity=".21"/>
      <stop offset=".75" stop-color="#2d7dd4" stop-opacity=".1"/>
      <stop offset=".89" stop-color="#2d7dd4" stop-opacity=".02"/>
      <stop offset="1" stop-color="#2d7dd4" stop-opacity="0"/>
    </linearGradient>
    <linearGradient id="linear-gradient-13" x1="9.33" y1="87.79" x2="24.71" y2="79.94" xlink:href="#linear-gradient-12"/>
    <linearGradient id="linear-gradient-14" x1="27" y1="56.15" x2="48.97" y2="86.28" xlink:href="#linear-gradient-12"/>
    <linearGradient id="linear-gradient-15" x1="35.61" y1="102.39" x2="52.48" y2="93.9" xlink:href="#linear-gradient-12"/>
    <linearGradient id="linear-gradient-16" x1="65.67" y1="37.69" x2="90.57" y2="37.69" xlink:href="#linear-gradient-11"/>
    <symbol id="New_Symbol" data-name="New Symbol" viewBox="0 0 101.76 116.46">
      <g>
        <path class="cls-19" d="m0,30.81v54.84c0,1.21.65,2.33,1.69,2.93l47.5,27.42c1.05.6,2.34.6,3.39,0l47.5-27.42c1.05-.6,1.69-1.72,1.69-2.93V30.81c0-1.21-.65-2.33-1.69-2.93L52.58.45c-1.05-.6-2.34-.6-3.39,0L1.69,27.88c-1.05.6-1.69,1.72-1.69,2.93Z"/>
        <path class="cls-17" d="m1.33,31.59v53.41c0,1.18.63,2.27,1.65,2.86l46.26,26.71c1.02.59,2.28.59,3.3,0l46.26-26.71c1.02-.59,1.65-1.68,1.65-2.86V31.59c0-1.18-.63-2.27-1.65-2.86L52.53,2.03c-1.02-.59-2.28-.59-3.3,0L2.98,28.74c-1.02.59-1.65,1.68-1.65,2.86Z"/>
        <path class="cls-13" d="m2.23,31.43v52.44c0,1.16.62,2.23,1.62,2.8l45.41,26.22c1,.58,2.24.58,3.24,0l45.41-26.22c1-.58,1.62-1.65,1.62-2.8V31.43c0-1.16-.62-2.23-1.62-2.8L52.5,2.41c-1-.58-2.24-.58-3.24,0L3.85,28.63c-1,.58-1.62,1.65-1.62,2.8Z"/>
        <path class="cls-22" d="m3.58,32.16v50.98c0,1.12.6,2.16,1.57,2.73l44.15,25.49c.97.56,2.17.56,3.15,0l44.15-25.49c.97-.56,1.57-1.6,1.57-2.73v-50.98c0-1.12-.6-2.16-1.57-2.73L52.46,3.94c-.97-.56-2.17-.56-3.15,0L5.15,29.43c-.97.56-1.57,1.6-1.57,2.73Z"/>
        <path class="cls-24" d="m96.22,33.29v45.31c0,1.68-1.82,2.73-3.27,1.89l-39.24-22.65c-1.27-.73-2.05-2.09-2.05-3.55V8.97c0-1.68,1.82-2.73,3.27-1.89l39.24,22.66c1.27.73,2.05,2.09,2.05,3.55Z"/>
        <path class="cls-15" d="m4.24,34.33v43.35c0,2.09,2.26,3.39,4.07,2.35l37.54-21.67c1.83-1.05,2.95-3,2.95-5.11V9.89c0-2.09-2.26-3.39-4.07-2.35L7.19,29.22c-1.83,1.05-2.95,3-2.95,5.11Z"/>
        <path class="cls-2" d="m48.1,59.39c.06-.04.11-.07.17-.11-.14.62-.21,1.26-.21,1.91v17.17l-19.21,11.1c-.09.05-.18.08-.24.09-.46.12-.63-.41-.63-1.19v-17.34l20.13-11.62Z"/>
        <path class="cls-11" d="m50.74,54.8l.06.04s-.05.04-.07.06c0-.04,0-.06,0-.1Z"/>
        <path class="cls-14" d="m67.49,64.45c0,1.7-1.18,3.75-2.64,4.59l-10.54,6.09v-13.75c0-1.01.54-1.94,1.42-2.45l1.09-.63,10.68,6.15Z"/>
        <path class="cls-23" d="m93.56,79.49c0,1.7-1.18,3.75-2.64,4.59l-35.66,20.6c-.09.05-.18.08-.24.09-.46.12-.63-.41-.63-1.19v-17.34l20.13-11.62c1.46-.84,2.64-2.89,2.64-4.59l2.79,1.61,13.62,7.85Z"/>
        <path class="cls-6" d="m67.16,64.26c0,1.7-1.18,3.75-2.64,4.59l-10.54,6.09v-13.75c0-1.01.54-1.94,1.42-2.45l1.09-.63,10.68,6.15Z"/>
        <path class="cls-3" d="m93.23,79.3c0,1.7-1.18,3.75-2.64,4.59l-35.66,20.6c-.09.05-.18.08-.24.09-.46.12-.63-.41-.63-1.19v-17.34l20.13-11.62c1.46-.84,2.64-2.89,2.64-4.59l2.79,1.61,13.62,7.85Z"/>
        <polyline class="cls-7" points="76.01 25.43 76.06 25.45 76.26 25.57"/>
        <line class="cls-7" x1="92.53" y1="34.96" x2="92.29" y2="34.83"/>
        <path class="cls-12" d="m93.08,35.18c-.47-.22-1.09-.16-1.77.24l-13.77,7.95-23.16,13.38c-1.46.84-2.64,2.9-2.64,4.59v42.76c0,.82.28,1.4.73,1.69l-16.28-9.39c-.05-.02-.1-.05-.14-.08-.45-.29-.73-.88-.73-1.69v-42.76c0-1.7,1.18-3.75,2.64-4.59l36.92-21.33c.75-.43,1.42-.46,1.9-.16l16.28,9.39Z"/>
        <path class="cls-18" d="m67.16,20.24c-.47-.22-1.09-.16-1.77.24l-13.77,7.95-23.16,13.38c-1.46.84-2.64,2.9-2.64,4.59v42.76c0,.82.28,1.4.73,1.69l-16.28-9.39c-.05-.02-.1-.05-.14-.08-.45-.29-.73-.88-.73-1.69v-42.76c0-1.7,1.18-3.75,2.64-4.59L48.98,11.01c.75-.43,1.42-.46,1.9-.16l16.28,9.39Z"/>
        <path class="cls-16" d="m92.36,34.77c-.47-.22-1.09-.16-1.77.24l-13.77,7.95-23.16,13.38c-1.46.84-2.64,2.9-2.64,4.59v42.76c0,.82.28,1.4.73,1.69l-16.28-9.39c-.05-.02-.1-.05-.14-.08-.45-.29-.73-.88-.73-1.69v-42.76c0-1.7,1.18-3.75,2.64-4.59l36.92-21.33c.75-.43,1.42-.46,1.9-.16l16.28,9.39Z"/>
        <path class="cls-21" d="m66.27,19.73c-.46-.21-1.08-.15-1.75.24l-13.77,7.95-23.16,13.38c-1.46.84-2.64,2.9-2.64,4.59v42.76c0,.82.28,1.4.73,1.69l-16.28-9.39c-.05-.02-.1-.05-.14-.08-.45-.29-.73-.88-.73-1.69v-42.76c0-1.7,1.18-3.75,2.64-4.59L48.1,10.5c.68-.39,1.3-.46,1.77-.23.04.02.09.04.13.07l16.26,9.38Z"/>
        <path class="cls-5" d="m64.38,20.04l-.75.43-16.97,9.8V11.69l.71-.41c.58-.33,1.28-.33,1.86,0l15.16,8.75Z"/>
        <polygon class="cls-1" points="24.37 45.42 24.37 87.82 8.97 79.06 8.97 36.53 24.37 45.42"/>
        <polygon class="cls-8" points="24.37 71.67 24.37 88.57 8.97 79.81 24.37 71.67"/>
        <polygon class="cls-10" points="50.41 60.89 50.41 103.29 35.02 94.53 35.02 52 50.41 60.89"/>
        <polygon class="cls-4" points="50.41 86.49 50.41 103.39 35.02 94.63 50.41 86.49"/>
        <path class="cls-9" d="m90.57,35l-24.91,14.38v-18.58l7.92-4.57c.56-.32,1.24-.32,1.8,0l15.19,8.77Z"/>
      </g>
    </symbol>
  </defs>
  <g id="Layer_1-2" data-name="Layer 1">
    <g id="V_Logo_on_Black" data-name="V Logo on Black">
      <g>
        <path class="cls-20" d="m26.57,57.44h-1.46v-.12c0-1.37.3-1.89,1.35-1.89h.11v2.01Zm14.61-3.72l-.94-.67s-.02-.01-.04-.01c-.03,0-.07.03-.07.08v4.32h-1.11c-.2,0-.36-.16-.36-.36v-3.24s-.02-.09-.06-.12l-.94-.67s-.02-.01-.04-.01c-.03,0-.07.03-.07.08v4.32h-1.19c-.2,0-.36-.16-.36-.36v-1.14c0-.06-.03-.1-.07-.13l-.94-.57s-.02-.01-.03-.01c-.03,0-.07.03-.07.08v2.12h-1.11c-.2,0-.36-.16-.36-.36v-1.14c0-.06-.02-.1-.07-.13l-.94-.57s-.02-.01-.03-.01c-.03,0-.07.03-.07.08v2.12h-1.31c-.2,0-.36-.16-.36-.36v-1.14c0-.06-.03-.1-.07-.13l-.94-.57s-.02-.01-.03-.01c-.04,0-.07.03-.07.08v2.12h-1.5c-.2,0-.36-.16-.36-.36v-2.48c0-.08-.06-.15-.13-.15h-1.1c-2.16,0-2.46,1.46-2.46,2.86v.54c0,.3.25.55.55.55h1.42c.34-.02.59-.1.74-.28.11.16.31.26.62.28h2.15c.35-.02.59-.1.74-.28.12.16.32.26.62.28h1.47c.35-.02.59-.1.74-.28.12.16.32.26.62.28h1.2c.35-.02.59-.1.74-.28.11.16.31.26.62.28h1.32c.35-.02.59-.1.74-.28.12.16.31.26.62.28h2.25s.07-.04.07-.08v-4.49s-.02-.1-.06-.12Z"/>
        <path class="cls-20" d="m42.3,53.05s-.02-.01-.04-.01c-.03,0-.07.03-.07.08v5.22s.03.08.07.08h.97s.07-.04.07-.08v-4.49s-.02-.1-.06-.12l-.94-.67Z"/>
        <path class="cls-20" d="m28.6,44.24l-.66.09v-.2c0-.34.17-.41.66-.44v-.66c-1.23.06-1.32.65-1.32,1.11v.29l-.21.03v.66l1.54-.21v-.66Z"/>
        <path class="cls-20" d="m40.23,44.29s-.03-.01-.04-.01c-.03,0-.07.03-.07.08v4.32h-3.3c.03-.15.05-.3.05-.47,0-1.14-.67-2.06-1.97-2.06s-2.17.87-2.17,2.09c0,.16.02.3.04.44h-3.11v-1.05c0-1.11-.93-1.99-2.05-1.92-1.02.07-1.79.96-1.79,1.98v1.47c0,.27.22.5.5.5h2.15v.12c0,.65-.14.89-1.39.83-.08,0-.43-.04-.66-.08-.03,0-.05,0-.07.02-.02.02-.03.04-.02.07l.13.7c.01.06.06.11.12.12h0c.21.03.68.06.75.07,2.31.09,2.33-1.19,2.33-1.73v-.12h3.55c.17.22.37.41.61.59h.77c.76,0,1.34-.22,1.72-.59h4.86s.07-.04.07-.08v-4.49c0-.05-.02-.1-.06-.12l-.94-.67Zm-13.23,3.2c0-.35.3-.67.69-.69.42-.02.76.28.76.65v1.22h-1.35c-.06,0-.11-.05-.11-.11v-1.08Zm7.66,1.78h-.51c-.21-.28-.34-.65-.34-1,0-.68.4-1.11,1.02-1.11s.95.45.95,1.01c0,.68-.41,1.11-1.12,1.11Z"/>
        <path class="cls-20" d="m43.24,44.96l-.94-.67s-.02-.01-.04-.01c-.03,0-.07.03-.07.08v5.22s.03.08.07.08h.97s.07-.04.07-.08v-4.49c0-.05-.02-.1-.06-.12Z"/>
        <path class="cls-20" d="m28.28,59.16c-.32,0-.59.26-.59.59s.26.59.59.59.59-.26.59-.59-.26-.59-.59-.59Z"/>
        <path class="cls-20" d="m29.62,59.16c-.32,0-.59.26-.59.59s.26.59.59.59.59-.26.59-.59-.26-.59-.59-.59Z"/>
        <path class="cls-20" d="m4.78,59.16c-.32,0-.59.26-.59.59s.26.59.59.59.59-.26.59-.59-.26-.59-.59-.59Z"/>
        <path class="cls-20" d="m6.14,59.16c-.32,0-.59.26-.59.59s.26.59.59.59.59-.26.59-.59-.26-.59-.59-.59Z"/>
        <circle class="cls-20" cx="3.18" cy="53.26" r=".59"/>
        <circle class="cls-20" cx="11.91" cy="53.26" r=".59"/>
        <path class="cls-20" d="m13.82,53.26c0-.32-.26-.59-.59-.59s-.59.26-.59.59.26.59.59.59.59-.26.59-.59Z"/>
        <path class="cls-20" d="m25.3,53.85c.32,0,.59-.26.59-.59s-.26-.59-.59-.59-.59.26-.59.59.26.59.59.59Z"/>
        <path class="cls-20" d="m27.23,53.26c0-.32-.26-.59-.59-.59s-.59.26-.59.59.26.59.59.59.59-.26.59-.59Z"/>
        <path class="cls-20" d="m16.16,54.43c.32,0,.59-.26.59-.59s-.26-.59-.59-.59-.59.26-.59.59.26.59.59.59Z"/>
        <path class="cls-20" d="m18.08,53.85c0-.32-.26-.59-.59-.59s-.59.26-.59.59.26.59.59.59.59-.26.59-.59Z"/>
        <path class="cls-20" d="m9.16,53.85c0-.32-.26-.59-.59-.59s-.59.26-.59.59.26.59.59.59.59-.26.59-.59Z"/>
        <path class="cls-20" d="m33.95,59.16c-.32,0-.59.26-.59.59s.26.59.59.59.59-.26.59-.59-.26-.59-.59-.59Z"/>
        <path class="cls-20" d="m35.3,59.16c-.32,0-.59.26-.59.59s.26.59.59.59.59-.26.59-.59-.26-.59-.59-.59Z"/>
        <path class="cls-20" d="m31.79,59.16c-.32,0-.59.26-.59.59s.26.59.59.59.59-.26.59-.59-.26-.59-.59-.59Z"/>
        <path class="cls-20" d="m3.18,44.87c.32,0,.59-.26.59-.59s-.26-.59-.59-.59-.59.26-.59.59.26.59.59.59Z"/>
        <path class="cls-20" d="m2.44,53.26c0-.32-.26-.59-.59-.59s-.59.26-.59.59.26.59.59.59.59-.26.59-.59Z"/>
        <path class="cls-20" d="m1.88,44.87c.32,0,.59-.26.59-.59s-.26-.59-.59-.59-.59.26-.59.59.26.59.59.59Z"/>
        <path class="cls-20" d="m2.85,57.44h-1.46v-.12c0-1.37.3-1.89,1.35-1.89h.11v2.01Zm10.05-1.97c.55,0,.91.35.91.82,0,.59-.55,1-.93,1.06-.4-.09-.9-.51-.9-1.06,0-.5.38-.82.92-.82Zm9.51-1.76l-.94-.67s-.02-.01-.04-.01c-.03,0-.07.03-.07.08v4.32h-.93c-.2,0-.36-.16-.36-.36v-3.25s-.02-.09-.06-.12l-.94-.67s-.02-.01-.04-.01c-.03,0-.07.03-.07.08v4.32h-1.02c-.2,0-.36-.16-.36-.36v-1.14c0-.06-.03-.1-.07-.13l-.94-.57s-.02-.01-.03-.01c-.03,0-.07.03-.07.08v2.12h-.67s-.01,0-.01,0h-1.32c.3-.34.35-.74.35-1.19,0-.95-.68-1.77-1.92-1.77s-1.97.84-1.97,1.8c0,.49.07.89.33,1.17h-1.36s-.19,0-.19,0c-.2,0-.36-.16-.36-.36v-1.14c0-.06-.03-.1-.07-.13l-.94-.57s-.02-.01-.04-.01c-.03,0-.07.03-.07.08v2.12h-1.25c-.2,0-.36-.16-.36-.36v-1.14c0-.06-.02-.1-.07-.13l-.94-.57s-.02-.01-.03-.01c-.04,0-.07.03-.07.08v2.12h-1.23c-.2,0-.36-.16-.36-.36v-2.48c0-.08-.06-.14-.13-.14h-1.09c-2.16,0-2.47,1.45-2.47,2.86v.54c0,.3.25.55.55.55h1.34c.34-.02.59-.1.74-.28.12.16.32.26.62.28h2.16c.34-.02.59-.1.74-.28.12.16.31.26.62.28h1.17c.34-.02.59-.1.74-.28.11.16.31.26.62.28h2.55c.27,0,.55-.09.75-.2.19.11.46.2.78.2h2.98c.35-.02.59-.1.74-.28.12.16.31.26.62.28h1c.35-.02.59-.1.74-.28.12.16.32.26.62.28h2.03s.07-.04.07-.08v-4.49s-.02-.1-.06-.12Z"/>
        <path class="cls-20" d="m2.78,48.69h-1.46v-.12c0-1.37.3-1.89,1.35-1.89h.11v2.01Zm21.55-2.51l-.72-.45c-.1-.06-.23,0-.23.13v1.92c0,.57-.12.86-.59.91h0s-.33,0-.33,0c-.36-.05-.55-.24-.55-.6v-1.13c0-.09-.05-.18-.13-.23l-.72-.45c-.1-.06-.22,0-.22.13v1.39c0,.58-.15.84-.57.88h-.36c-.33-.04-.53-.21-.53-.6v-.64c0-.09-.05-.18-.12-.22l-.72-.45c-.1-.06-.23.01-.23.13v1.06c0,.58-.15.68-.58.72h-2.78c-.5-.05-.79-.33-.79-.9v-1.38c0-.09-.05-.18-.12-.23l-.72-.45c-.1-.06-.23,0-.23.13v1.92c0,.57-.12.86-.58.91h-.34c-.36-.05-.55-.24-.55-.6v-1.13c0-.09-.05-.18-.13-.23l-.72-.45c-.1-.06-.23,0-.23.13v1.39c0,.58-.15.84-.56.88h-.36c-.33-.04-.54-.21-.54-.6v-.64c0-.09-.05-.18-.12-.22l-.72-.45c-.1-.06-.23,0-.23.13v.9c0,.58-.15.84-.58.88h-3.2c-.2,0-.36-.16-.36-.36v-2.47c0-.08-.06-.15-.13-.15h-1.1c-2.16,0-2.46,1.45-2.46,2.86v.54c0,.3.25.55.55.55h1.48c.34-.02.59-.1.74-.27.12.16.31.25.62.27h4.59c.34-.02.59-.1.74-.27.12.16.31.25.62.27h1c.34-.02.59-.1.74-.27.12.16.32.25.62.27h1.13c.35-.02.59-.1.74-.27.12.16.31.25.62.27h3.99c.34-.02.59-.1.74-.27.11.16.31.25.62.27h1.08c.34-.02.59-.1.74-.27.12.16.31.25.62.27h.59c1-.01,1.66-.6,1.66-1.57v-1.68c0-.09-.05-.18-.13-.23Z"/>
        <path class="cls-20" d="m2.13,64.07v-1.61h-.49v2.06h1.18l.06-.44h-.74Zm.88-1.61v2.06h.5v-2.06h-.5Zm2,.95c.08-.07.15-.19.15-.38,0-.34-.23-.56-.61-.56h-.71v2.06h.7c.42,0,.68-.25.68-.64,0-.25-.1-.38-.2-.47Zm-.68-.52h.15c.17,0,.19.09.19.17,0,.09,0,.16-.2.16h-.14v-.33Zm.17,1.21h-.17v-.45h.14c.18,0,.25.06.25.23,0,.15-.06.22-.21.22Zm1.79-1.64s-.25.61-.29.72c-.06-.14-.14-.33-.2-.51l-.09-.2h-.55l.58,1.26v.79h.5v-.77l.59-1.29h-.54Zm1.33,0h-.55l-.02.06s-.1.39-.26.99c-.11.41-.23.87-.24.9l-.03.1h.51l.11-.48h.39l.12.48h.52l-.55-2.06Zm-.41,1.22c.05-.19.09-.38.13-.54.02.13.13.54.13.54h-.26Zm2.07-1.22v1.03c-.09-.2-.55-1.03-.55-1.03h-.43v2.06h.47v-1.09c.09.21.2.54.54,1.04l.03.05h.4v-2.06h-.46Zm1.01,0v.45h.45v1.6h.49v-1.6h.45v-.45h-1.4Zm2.09,1.61v-.4h.69v-.44h-.69v-.32h.72v-.45h-1.22v2.06h1.21l.07-.44h-.78Zm3.47-1.61v.76h-.41v-.76h-.49v2.06h.49v-.84h.41v.84h.49v-2.06h-.49Zm1.79,0v.66c0,.13,0,.26,0,.38-.09-.2-.57-1.03-.57-1.03h-.41v2.06h.47v-1.09c.09.21.2.54.54,1.04l.04.05h.39v-2.06h-.47Zm3.02,1.61v-1.61h-.49v2.06h1.18l.06-.44h-.74Zm5.11-1.61s-.25.61-.29.72c-.06-.15-.14-.34-.2-.51l-.09-.2h-.55l.57,1.26v.79h.5v-.77l.59-1.29h-.53Zm2.29.45v-.45h-1.21v2.06h.49v-.81h.67v-.45h-.67v-.34h.72Zm4.62-.45v1.03c-.09-.2-.54-1.03-.54-1.03h-.44v2.06h.47v-1.09c.09.21.2.54.53,1.04l.03.05h.42v-2.06h-.46Zm1.42,0h-.63v2.06h.61c.39,0,.85-.19.85-1.07,0-.82-.45-.99-.83-.99Zm-.03,1.62h-.09v-1.18h.1c.18,0,.35.07.35.55,0,.56-.18.63-.36.63Zm2-1.62h-.55l-.02.06s-.1.39-.26.99c-.11.41-.23.87-.24.9l-.03.1h.5l.12-.48h.39l.12.48h.52l-.55-2.06Zm-.38,1.13c.03-.14.07-.27.09-.39.02.09.09.39.09.39h-.19Zm.73-1.13v.45h.45v1.6h.49v-1.6h.45v-.45h-1.4Zm1.56,0v2.06h.49v-2.06h-.49Zm3.53,0v1.03c-.09-.2-.2-.51-.5-.98l-.03-.05h-.46v2.06h.47v-1.09c.09.21.2.54.52,1.04l.03.05h.43v-2.06h-.46Zm-27.24,1.33v.07c-.04.15-.09.25-.22.25-.06,0-.26,0-.26-.61,0-.55.14-.61.26-.61.15,0,.18.1.2.24v.06s.08,0,.08,0h.43v-.09c-.02-.15-.09-.67-.7-.67-.49,0-.77.38-.77,1.05,0,.26,0,1.07.75,1.07.39,0,.66-.25.71-.67l.02-.09h-.49Zm4.89-1.36c-.5,0-.78.38-.78,1.04,0,.89.41,1.07.76,1.07.53,0,.79-.36.79-1.07,0-.67-.27-1.04-.77-1.04Zm0,1.67c-.24,0-.27-.39-.27-.63,0-.4.09-.6.26-.6.08,0,.27,0,.27.6,0,.56-.15.63-.26.63Zm3.06-1.67c-.5,0-.78.38-.78,1.04,0,.89.42,1.07.76,1.07.53,0,.79-.36.79-1.07,0-.67-.27-1.04-.77-1.04Zm0,1.67c-.24,0-.27-.39-.27-.63,0-.4.09-.6.26-.6.08,0,.27,0,.27.6,0,.56-.14.63-.26.63Zm1.8-.36h.15c0,.33-.11.36-.22.36s-.26-.06-.26-.61c0-.42.09-.62.28-.62.14,0,.19.08.2.2l.02.07h.49v-.09c-.03-.19-.14-.62-.7-.62-.5,0-.8.39-.8,1.07,0,.91.44,1.05.7,1.05.16,0,.28-.03.38-.11,0,0,.02.08.02.08h.4v-1.13h-.82l.17.37Zm4.98-1.31c-.49,0-.78.38-.78,1.04,0,.89.42,1.07.77,1.07.52,0,.78-.36.78-1.07,0-.67-.27-1.04-.77-1.04Zm0,1.67c-.23,0-.26-.39-.26-.63,0-.4.09-.6.26-.6.08,0,.27,0,.27.6,0,.56-.15.63-.27.63Zm10.54-1.67c-.49,0-.78.38-.78,1.04,0,.89.42,1.07.77,1.07.52,0,.78-.36.78-1.07,0-.67-.27-1.04-.77-1.04Zm0,1.67c-.23,0-.26-.39-.26-.63,0-.4.09-.6.26-.6.08,0,.27,0,.27.6,0,.56-.14.63-.27.63Zm-8.59-1.65v1.36c0,.25-.09.29-.21.29-.11,0-.22-.03-.22-.3v-1.35h-.49v1.36c0,.48.24.73.71.73s.72-.26.72-.73v-1.36h-.49Z"/>
        <path class="cls-20" d="m41.56,65.45H1.96c-1.08,0-1.96-.88-1.96-1.96s.88-1.96,1.96-1.96h39.6c1.08,0,1.96.88,1.96,1.96s-.88,1.96-1.96,1.96ZM1.96,61.95c-.85,0-1.54.69-1.54,1.54s.69,1.54,1.54,1.54h39.6c.85,0,1.54-.69,1.54-1.54s-.69-1.54-1.54-1.54H1.96Z"/>
      </g>
      <use width="101.76" height="116.46" transform="translate(3.85) scale(.36)" xlink:href="#New_Symbol"/>
    </g>
  </g>
</svg>