<?xml version="1.0" encoding="UTF-8"?>
<svg id="Layer_2" data-name="Layer 2" xmlns="http://www.w3.org/2000/svg" viewBox="0 0 43.51 64.87">
  <defs>
    <style>
      .cls-1 {
        fill: #1462ac;
        stroke-width: 0px;
      }
    </style>
  </defs>
  <g id="Layer_1-2" data-name="Layer 1">
    <g id="V_logo_Blue" data-name="V logo Blue">
      <g>
        <path class="cls-1" d="m26.57,56.87h-1.46v-.12c0-1.37.3-1.89,1.35-1.89h.11v2.01Zm14.61-3.72l-.94-.67s-.02-.01-.04-.01c-.03,0-.07.03-.07.08v4.32h-1.11c-.2,0-.36-.16-.36-.36v-3.24s-.02-.09-.06-.12l-.94-.67s-.02-.01-.04-.01c-.03,0-.07.03-.07.08v4.32h-1.19c-.2,0-.36-.16-.36-.36v-1.14c0-.06-.03-.1-.07-.13l-.94-.57s-.02-.01-.03-.01c-.03,0-.07.03-.07.08v2.12h-1.11c-.2,0-.36-.16-.36-.36v-1.14c0-.06-.02-.1-.07-.13l-.94-.57s-.02-.01-.03-.01c-.03,0-.07.03-.07.08v2.12h-1.31c-.2,0-.36-.16-.36-.36v-1.14c0-.06-.03-.1-.07-.13l-.94-.57s-.02-.01-.03-.01c-.04,0-.07.03-.07.08v2.12h-1.5c-.2,0-.36-.16-.36-.36v-2.48c0-.08-.06-.15-.13-.15h-1.1c-2.16,0-2.46,1.46-2.46,2.86v.54c0,.3.25.55.55.55h1.42c.34-.02.59-.1.74-.28.11.16.31.26.62.28h2.15c.35-.02.59-.1.74-.28.12.16.32.26.62.28h1.47c.35-.02.59-.1.74-.28.12.16.32.26.62.28h1.2c.35-.02.59-.1.74-.28.11.16.31.26.62.28h1.32c.35-.02.59-.1.74-.28.12.16.31.26.62.28h2.25s.07-.04.07-.08v-4.49s-.02-.1-.06-.12Z"/>
        <path class="cls-1" d="m42.3,52.47s-.02-.01-.04-.01c-.03,0-.07.03-.07.08v5.22s.03.08.07.08h.97s.07-.04.07-.08v-4.49s-.02-.1-.06-.12l-.94-.67Z"/>
        <path class="cls-1" d="m28.6,43.67l-.66.09v-.2c0-.34.17-.41.66-.44v-.66c-1.23.06-1.32.65-1.32,1.11v.29l-.21.03v.66l1.54-.21v-.66Z"/>
        <path class="cls-1" d="m40.23,43.72s-.03-.01-.04-.01c-.03,0-.07.03-.07.08v4.32h-3.3c.03-.15.05-.3.05-.47,0-1.14-.67-2.06-1.97-2.06s-2.17.87-2.17,2.09c0,.16.02.3.04.44h-3.11v-1.05c0-1.11-.93-1.99-2.05-1.92-1.02.07-1.79.96-1.79,1.98v1.47c0,.27.22.5.5.5h2.15v.12c0,.65-.14.89-1.39.83-.08,0-.43-.04-.66-.08-.03,0-.05,0-.07.02-.02.02-.03.04-.02.07l.13.7c.01.06.06.11.12.12h0c.21.03.68.06.75.07,2.31.09,2.33-1.19,2.33-1.73v-.12h3.55c.17.22.37.41.61.59h.77c.76,0,1.34-.22,1.72-.59h4.86s.07-.04.07-.08v-4.49c0-.05-.02-.1-.06-.12l-.94-.67Zm-13.23,3.2c0-.35.3-.67.69-.69.42-.02.76.28.76.65v1.22h-1.35c-.06,0-.11-.05-.11-.11v-1.08Zm7.66,1.78h-.51c-.21-.28-.34-.65-.34-1,0-.68.4-1.11,1.02-1.11s.95.45.95,1.01c0,.68-.41,1.11-1.12,1.11Z"/>
        <path class="cls-1" d="m43.24,44.39l-.94-.67s-.02-.01-.04-.01c-.03,0-.07.03-.07.08v5.22s.03.08.07.08h.97s.07-.04.07-.08v-4.49c0-.05-.02-.1-.06-.12Z"/>
        <path class="cls-1" d="m28.28,58.59c-.32,0-.59.26-.59.59s.26.59.59.59.59-.26.59-.59-.26-.59-.59-.59Z"/>
        <path class="cls-1" d="m29.62,58.59c-.32,0-.59.26-.59.59s.26.59.59.59.59-.26.59-.59-.26-.59-.59-.59Z"/>
        <path class="cls-1" d="m4.78,58.59c-.32,0-.59.26-.59.59s.26.59.59.59.59-.26.59-.59-.26-.59-.59-.59Z"/>
        <path class="cls-1" d="m6.14,58.59c-.32,0-.59.26-.59.59s.26.59.59.59.59-.26.59-.59-.26-.59-.59-.59Z"/>
        <circle class="cls-1" cx="3.18" cy="52.69" r=".59"/>
        <circle class="cls-1" cx="11.91" cy="52.69" r=".59"/>
        <path class="cls-1" d="m13.82,52.69c0-.32-.26-.59-.59-.59s-.59.26-.59.59.26.59.59.59.59-.26.59-.59Z"/>
        <path class="cls-1" d="m25.3,53.28c.32,0,.59-.26.59-.59s-.26-.59-.59-.59-.59.26-.59.59.26.59.59.59Z"/>
        <path class="cls-1" d="m27.23,52.69c0-.32-.26-.59-.59-.59s-.59.26-.59.59.26.59.59.59.59-.26.59-.59Z"/>
        <path class="cls-1" d="m16.16,53.86c.32,0,.59-.26.59-.59s-.26-.59-.59-.59-.59.26-.59.59.26.59.59.59Z"/>
        <path class="cls-1" d="m18.08,53.28c0-.32-.26-.59-.59-.59s-.59.26-.59.59.26.59.59.59.59-.26.59-.59Z"/>
        <path class="cls-1" d="m9.16,53.28c0-.32-.26-.59-.59-.59s-.59.26-.59.59.26.59.59.59.59-.26.59-.59Z"/>
        <path class="cls-1" d="m33.95,58.59c-.32,0-.59.26-.59.59s.26.59.59.59.59-.26.59-.59-.26-.59-.59-.59Z"/>
        <path class="cls-1" d="m35.3,58.59c-.32,0-.59.26-.59.59s.26.59.59.59.59-.26.59-.59-.26-.59-.59-.59Z"/>
        <path class="cls-1" d="m31.79,58.59c-.32,0-.59.26-.59.59s.26.59.59.59.59-.26.59-.59-.26-.59-.59-.59Z"/>
        <path class="cls-1" d="m3.18,44.3c.32,0,.59-.26.59-.59s-.26-.59-.59-.59-.59.26-.59.59.26.59.59.59Z"/>
        <path class="cls-1" d="m2.44,52.69c0-.32-.26-.59-.59-.59s-.59.26-.59.59.26.59.59.59.59-.26.59-.59Z"/>
        <path class="cls-1" d="m1.88,44.3c.32,0,.59-.26.59-.59s-.26-.59-.59-.59-.59.26-.59.59.26.59.59.59Z"/>
        <path class="cls-1" d="m2.85,56.87h-1.46v-.12c0-1.37.3-1.89,1.35-1.89h.11v2.01Zm10.05-1.97c.55,0,.91.35.91.82,0,.59-.55,1-.93,1.06-.4-.09-.9-.51-.9-1.06,0-.5.38-.82.92-.82Zm9.51-1.76l-.94-.67s-.02-.01-.04-.01c-.03,0-.07.03-.07.08v4.32h-.93c-.2,0-.36-.16-.36-.36v-3.25s-.02-.09-.06-.12l-.94-.67s-.02-.01-.04-.01c-.03,0-.07.03-.07.08v4.32h-1.02c-.2,0-.36-.16-.36-.36v-1.14c0-.06-.03-.1-.07-.13l-.94-.57s-.02-.01-.03-.01c-.03,0-.07.03-.07.08v2.12h-.67s-.01,0-.01,0h-1.32c.3-.34.35-.74.35-1.19,0-.95-.68-1.77-1.92-1.77s-1.97.84-1.97,1.8c0,.49.07.89.33,1.17h-1.36s-.19,0-.19,0c-.2,0-.36-.16-.36-.36v-1.14c0-.06-.03-.1-.07-.13l-.94-.57s-.02-.01-.04-.01c-.03,0-.07.03-.07.08v2.12h-1.25c-.2,0-.36-.16-.36-.36v-1.14c0-.06-.02-.1-.07-.13l-.94-.57s-.02-.01-.03-.01c-.04,0-.07.03-.07.08v2.12h-1.23c-.2,0-.36-.16-.36-.36v-2.48c0-.08-.06-.14-.13-.14h-1.09c-2.16,0-2.47,1.45-2.47,2.86v.54c0,.3.25.55.55.55h1.34c.34-.02.59-.1.74-.28.12.16.32.26.62.28h2.16c.34-.02.59-.1.74-.28.12.16.31.26.62.28h1.17c.34-.02.59-.1.74-.28.11.16.31.26.62.28h2.55c.27,0,.55-.09.75-.2.19.11.46.2.78.2h2.98c.35-.02.59-.1.74-.28.12.16.31.26.62.28h1c.35-.02.59-.1.74-.28.12.16.32.26.62.28h2.03s.07-.04.07-.08v-4.49s-.02-.1-.06-.12Z"/>
        <path class="cls-1" d="m2.78,48.11h-1.46v-.12c0-1.37.3-1.89,1.35-1.89h.11v2.01Zm21.55-2.51l-.72-.45c-.1-.06-.23,0-.23.13v1.92c0,.57-.12.86-.59.91h0s-.33,0-.33,0c-.36-.05-.55-.24-.55-.6v-1.13c0-.09-.05-.18-.13-.23l-.72-.45c-.1-.06-.22,0-.22.13v1.39c0,.58-.15.84-.57.88h-.36c-.33-.04-.53-.21-.53-.6v-.64c0-.09-.05-.18-.12-.22l-.72-.45c-.1-.06-.23.01-.23.13v1.06c0,.58-.15.68-.58.72h-2.78c-.5-.05-.79-.33-.79-.9v-1.38c0-.09-.05-.18-.12-.23l-.72-.45c-.1-.06-.23,0-.23.13v1.92c0,.57-.12.86-.58.91h-.34c-.36-.05-.55-.24-.55-.6v-1.13c0-.09-.05-.18-.13-.23l-.72-.45c-.1-.06-.23,0-.23.13v1.39c0,.58-.15.84-.56.88h-.36c-.33-.04-.54-.21-.54-.6v-.64c0-.09-.05-.18-.12-.22l-.72-.45c-.1-.06-.23,0-.23.13v.9c0,.58-.15.84-.58.88h-3.2c-.2,0-.36-.16-.36-.36v-2.47c0-.08-.06-.15-.13-.15h-1.1c-2.16,0-2.46,1.45-2.46,2.86v.54c0,.3.25.55.55.55h1.48c.34-.02.59-.1.74-.27.12.16.31.25.62.27h4.59c.34-.02.59-.1.74-.27.12.16.31.25.62.27h1c.34-.02.59-.1.74-.27.12.16.32.25.62.27h1.13c.35-.02.59-.1.74-.27.12.16.31.25.62.27h3.99c.34-.02.59-.1.74-.27.11.16.31.25.62.27h1.08c.34-.02.59-.1.74-.27.12.16.31.25.62.27h.59c1-.01,1.66-.6,1.66-1.57v-1.68c0-.09-.05-.18-.13-.23Z"/>
        <path class="cls-1" d="m2.13,63.5v-1.61h-.49v2.06h1.18l.06-.44h-.74Zm.88-1.61v2.06h.5v-2.06h-.5Zm2,.95c.08-.07.15-.19.15-.38,0-.34-.23-.56-.61-.56h-.71v2.06h.7c.42,0,.68-.25.68-.64,0-.25-.1-.38-.2-.47Zm-.68-.52h.15c.17,0,.19.09.19.17,0,.09,0,.16-.2.16h-.14v-.33Zm.17,1.21h-.17v-.45h.14c.18,0,.25.06.25.23,0,.15-.06.22-.21.22Zm1.79-1.64s-.25.61-.29.72c-.06-.14-.14-.33-.2-.51l-.09-.2h-.55l.58,1.26v.79h.5v-.77l.59-1.29h-.54Zm1.33,0h-.55l-.02.06s-.1.39-.26.99c-.11.41-.23.87-.24.9l-.03.1h.51l.11-.48h.39l.12.48h.52l-.55-2.06Zm-.41,1.22c.05-.19.09-.38.13-.54.02.13.13.54.13.54h-.26Zm2.07-1.22v1.03c-.09-.2-.55-1.03-.55-1.03h-.43v2.06h.47v-1.09c.09.21.2.54.54,1.04l.03.05h.4v-2.06h-.46Zm1.01,0v.45h.45v1.6h.49v-1.6h.45v-.45h-1.4Zm2.09,1.61v-.4h.69v-.44h-.69v-.32h.72v-.45h-1.22v2.06h1.21l.07-.44h-.78Zm3.47-1.61v.76h-.41v-.76h-.49v2.06h.49v-.84h.41v.84h.49v-2.06h-.49Zm1.79,0v.66c0,.13,0,.26,0,.38-.09-.2-.57-1.03-.57-1.03h-.41v2.06h.47v-1.09c.09.21.2.54.54,1.04l.04.05h.39v-2.06h-.47Zm3.02,1.61v-1.61h-.49v2.06h1.18l.06-.44h-.74Zm5.11-1.61s-.25.61-.29.72c-.06-.15-.14-.34-.2-.51l-.09-.2h-.55l.57,1.26v.79h.5v-.77l.59-1.29h-.53Zm2.29.45v-.45h-1.21v2.06h.49v-.81h.67v-.45h-.67v-.34h.72Zm4.62-.45v1.03c-.09-.2-.54-1.03-.54-1.03h-.44v2.06h.47v-1.09c.09.21.2.54.53,1.04l.03.05h.42v-2.06h-.46Zm1.42,0h-.63v2.06h.61c.39,0,.85-.19.85-1.07,0-.82-.45-.99-.83-.99Zm-.03,1.62h-.09v-1.18h.1c.18,0,.35.07.35.55,0,.56-.18.63-.36.63Zm2-1.62h-.55l-.02.06s-.1.39-.26.99c-.11.41-.23.87-.24.9l-.03.1h.5l.12-.48h.39l.12.48h.52l-.55-2.06Zm-.38,1.13c.03-.14.07-.27.09-.39.02.09.09.39.09.39h-.19Zm.73-1.13v.45h.45v1.6h.49v-1.6h.45v-.45h-1.4Zm1.56,0v2.06h.49v-2.06h-.49Zm3.53,0v1.03c-.09-.2-.2-.51-.5-.98l-.03-.05h-.46v2.06h.47v-1.09c.09.21.2.54.52,1.04l.03.05h.43v-2.06h-.46Zm-27.24,1.33v.07c-.04.15-.09.25-.22.25-.06,0-.26,0-.26-.61,0-.55.14-.61.26-.61.15,0,.18.1.2.24v.06s.08,0,.08,0h.43v-.09c-.02-.15-.09-.67-.7-.67-.49,0-.77.38-.77,1.05,0,.26,0,1.07.75,1.07.39,0,.66-.25.71-.67l.02-.09h-.49Zm4.89-1.36c-.5,0-.78.38-.78,1.04,0,.89.41,1.07.76,1.07.53,0,.79-.36.79-1.07,0-.67-.27-1.04-.77-1.04Zm0,1.67c-.24,0-.27-.39-.27-.63,0-.4.09-.6.26-.6.08,0,.27,0,.27.6,0,.56-.15.63-.26.63Zm3.06-1.67c-.5,0-.78.38-.78,1.04,0,.89.42,1.07.76,1.07.53,0,.79-.36.79-1.07,0-.67-.27-1.04-.77-1.04Zm0,1.67c-.24,0-.27-.39-.27-.63,0-.4.09-.6.26-.6.08,0,.27,0,.27.6,0,.56-.14.63-.26.63Zm1.8-.36h.15c0,.33-.11.36-.22.36s-.26-.06-.26-.61c0-.42.09-.62.28-.62.14,0,.19.08.2.2l.02.07h.49v-.09c-.03-.19-.14-.62-.7-.62-.5,0-.8.39-.8,1.07,0,.91.44,1.05.7,1.05.16,0,.28-.03.38-.11,0,0,.02.08.02.08h.4v-1.13h-.82l.17.37Zm4.98-1.31c-.49,0-.78.38-.78,1.04,0,.89.42,1.07.77,1.07.52,0,.78-.36.78-1.07,0-.67-.27-1.04-.77-1.04Zm0,1.67c-.23,0-.26-.39-.26-.63,0-.4.09-.6.26-.6.08,0,.27,0,.27.6,0,.56-.15.63-.27.63Zm10.54-1.67c-.49,0-.78.38-.78,1.04,0,.89.42,1.07.77,1.07.52,0,.78-.36.78-1.07,0-.67-.27-1.04-.77-1.04Zm0,1.67c-.23,0-.26-.39-.26-.63,0-.4.09-.6.26-.6.08,0,.27,0,.27.6,0,.56-.14.63-.27.63Zm-8.59-1.65v1.36c0,.25-.09.29-.21.29-.11,0-.22-.03-.22-.3v-1.35h-.49v1.36c0,.48.24.73.71.73s.72-.26.72-.73v-1.36h-.49Z"/>
        <path class="cls-1" d="m41.56,64.87H1.96c-1.08,0-1.96-.88-1.96-1.96s.88-1.96,1.96-1.96h39.6c1.08,0,1.96.88,1.96,1.96s-.88,1.96-1.96,1.96ZM1.96,61.38c-.85,0-1.54.69-1.54,1.54s.69,1.54,1.54,1.54h39.6c.85,0,1.54-.69,1.54-1.54s-.69-1.54-1.54-1.54H1.96Z"/>
      </g>
      <g>
        <path class="cls-1" d="m38.62,8.95L23.87.44c-1.01-.58-2.26-.58-3.26,0L5.85,8.95c-1.01.58-1.63,1.66-1.63,2.83v17.03c0,1.16.63,2.25,1.63,2.83l14.75,8.52c.5.29,1.07.43,1.63.43s1.13-.15,1.63-.44l14.75-8.52c1.01-.58,1.63-1.66,1.63-2.83V11.78c0-1.16-.63-2.25-1.63-2.83Zm.62,19.86c0,.8-.43,1.55-1.13,1.95l-14.75,8.52c-.7.4-1.56.4-2.25,0l-14.75-8.52c-.69-.4-1.13-1.15-1.13-1.95V11.78c0-.8.43-1.55,1.13-1.95L21.11,1.31c.35-.2.74-.3,1.13-.3s.78.1,1.13.3l14.75,8.52c.69.4,1.13,1.15,1.13,1.95v17.03Z"/>
        <path class="cls-1" d="m28.09,22.68l-3.84-2.21-.39.23c-.32.18-.51.52-.51.88v4.95l3.79-2.19c.53-.31.95-1.04.95-1.65Z"/>
        <path class="cls-1" d="m31.57,24.68c0,.61-.43,1.35-.95,1.65l-7.24,4.18v6.24c0,.28.06.47.23.43.02,0,.06-.02.09-.03l12.84-7.41c.53-.31.95-1.04.95-1.65l-4.9-2.82-1-.58Z"/>
        <path class="cls-1" d="m36.52,12.15c.25-.14.47-.16.64-.08l-5.86-3.38c-.17-.11-.42-.1-.68.06l-13.29,7.68c-.53.3-.95,1.04-.95,1.65v5.66l-2.39,1.38v6.24c0,.28.06.47.23.43.02,0,.06-.02.09-.03l2.07-1.2v2.91c0,.29.1.5.26.61.02.01.03.02.05.03l5.86,3.38c-.16-.1-.26-.31-.26-.61v-15.39c0-.61.43-1.35.95-1.65l8.33-4.81,4.96-2.86Z"/>
        <path class="cls-1" d="m27.14,6.73c.24-.14.46-.16.63-.09l-5.85-3.38s-.03-.02-.05-.03c-.17-.08-.39-.06-.64.08l-13.29,7.68c-.53.31-.95,1.04-.95,1.65v15.39c0,.29.1.5.26.61.02.01.03.02.05.03l5.86,3.38c-.16-.1-.26-.31-.26-.61v-15.39c0-.61.43-1.35.95-1.65l8.33-4.81,4.96-2.86Z"/>
      </g>
    </g>
  </g>
</svg>